<?xml version="1.0" standalone="no"?>
<!DOCTYPE svg PUBLIC "-//W3C//DTD SVG 20010904//EN"
 "http://www.w3.org/TR/2001/REC-SVG-20010904/DTD/svg10.dtd">
<svg version="1.0" xmlns="http://www.w3.org/2000/svg"
 width="260.000000pt" height="260.000000pt" viewBox="0 0 260.000000 260.000000"
 preserveAspectRatio="xMidYMid meet">
<metadata>
Created by potrace 1.14, written by Peter Selinger 2001-2017
</metadata>
<g transform="translate(0.000000,260.000000) scale(0.100000,-0.100000)"
fill="#000000" stroke="none">
<path d="M0 1300 l0 -1300 1300 0 1300 0 0 1300 0 1300 -1300 0 -1300 0 0
-1300z m1170 715 l0 -85 -380 0 -380 0 0 -270 0 -270 345 0 345 0 0 -85 0 -85
-345 0 -345 0 0 -360 0 -360 -100 0 -100 0 0 800 0 800 480 0 480 0 0 -85z
m985 -322 c114 -37 197 -121 237 -242 21 -63 22 -84 26 -508 l3 -443 -95 0
-96 0 0 408 c0 459 -3 482 -67 553 -60 67 -103 84 -208 84 -78 -1 -97 -5 -141
-28 -62 -31 -116 -92 -141 -156 -15 -41 -18 -93 -21 -453 l-3 -408 -90 0 -89
0 0 600 0 600 89 0 89 0 1 -92 c1 -51 3 -94 5 -95 2 -2 17 19 34 46 32 52 92
102 152 127 83 35 218 38 315 7z"/>
</g>
</svg>
